<?xml version="1.0" encoding="UTF-8" standalone="no"?>
<svg
   xmlns:dc="http://purl.org/dc/elements/1.1/"
   xmlns:cc="http://creativecommons.org/ns#"
   xmlns:rdf="http://www.w3.org/1999/02/22-rdf-syntax-ns#"
   xmlns:svg="http://www.w3.org/2000/svg"
   xmlns="http://www.w3.org/2000/svg"
   id="svg4751"
   version="1.1"
   viewBox="0 0 46.302082 13.229167"
   height="50"
   width="175">
  <defs
     id="defs4745" />
  <metadata
     id="metadata4748">
    <rdf:RDF>
      <cc:Work
         rdf:about="">
        <dc:format>image/svg+xml</dc:format>
        <dc:type
           rdf:resource="http://purl.org/dc/dcmitype/StillImage" />
        <dc:title></dc:title>
      </cc:Work>
    </rdf:RDF>
  </metadata>
  <g
     transform="translate(0,-283.77083)"
     id="layer1">
    <g
       id="g5356">
      <g
         transform="matrix(0.63918844,0,0,0.65498146,-18.874554,217.61642)"
         id="g63"
         style="fill:#d1e8e2;fill-opacity:1">
        <path
           d="m 35.450883,107.16553 v 7.59458 h 5.784034 v -1.42803 h -3.28006 v -6.16655 z"
           style="font-style:normal;font-variant:normal;font-weight:bold;font-stretch:normal;font-size:10.58333302px;line-height:1.25;font-family:Poppins;-inkscape-font-specification:'Poppins Bold';letter-spacing:0px;word-spacing:0px;fill:#d1e8e2;fill-opacity:1;stroke:none;stroke-width:0.31465897"
           id="path18" />
        <path
           d="m 41.764084,114.76011 h 1.80975 v -7.4295 h -1.80975 z"
           style="font-style:normal;font-variant:normal;font-weight:bold;font-stretch:normal;font-size:10.58333302px;line-height:1.25;font-family:Poppins;-inkscape-font-specification:'Poppins Bold';letter-spacing:0px;word-spacing:0px;fill:#d1e8e2;fill-opacity:1;stroke:none;stroke-width:0.26458332"
           id="path20" />
        <path
           d="m 49.753673,112.5482 c 0,-2.48709 -3.672417,-1.905 -3.672417,-3.19617 0,-0.46567 0.328084,-0.68792 0.762,-0.67733 0.486834,0.0106 0.8255,0.29633 0.85725,0.77258 h 1.957917 c -0.07408,-1.41817 -1.164167,-2.2225 -2.783417,-2.2225 -1.55575,0 -2.709333,0.78317 -2.709333,2.19075 -0.02117,2.63525 3.693583,1.89442 3.693583,3.27025 0,0.43392 -0.338666,0.6985 -0.867833,0.6985 -0.508,0 -0.867833,-0.27517 -0.92075,-0.84667 h -1.926167 c 0.05292,1.50284 1.30175,2.29659 2.899834,2.29659 1.735666,0 2.709333,-1.03717 2.709333,-2.286 z"
           style="font-style:normal;font-variant:normal;font-weight:bold;font-stretch:normal;font-size:10.58333302px;line-height:1.25;font-family:Poppins;-inkscape-font-specification:'Poppins Bold';letter-spacing:0px;word-spacing:0px;fill:#d1e8e2;fill-opacity:1;stroke:none;stroke-width:0.26458332"
           id="path22" />
        <path
           d="m 55.407653,114.76011 h 1.915583 l -2.688166,-7.4295 h -2.0955 l -2.688167,7.4295 h 1.894417 l 0.4445,-1.31233 h 2.772833 z m -0.910167,-2.70933 H 52.66657 l 0.910166,-2.71992 z"
           style="font-style:normal;font-variant:normal;font-weight:bold;font-stretch:normal;font-size:10.58333302px;line-height:1.25;font-family:Poppins;-inkscape-font-specification:'Poppins Bold';letter-spacing:0px;word-spacing:0px;fill:#d1e8e2;fill-opacity:1;stroke:none;stroke-width:0.26458332"
           id="path24" />
      </g>
      <g
         id="g71"
         transform="matrix(0.63918844,0,0,0.65498146,-19.940396,217.55027)"
         style="fill:#ffcb9a">
        <path
           d="m 61.240714,114.76011 h 2.679147 l 1.501246,-4.8895 1.449623,4.8895 h 2.679097 l 2.36849,-7.4295 h -2.381428 l -1.320065,5.40809 -1.553035,-5.40809 h -2.433202 l -1.617817,5.40809 -1.307073,-5.40809 h -2.36849 z"
           style="font-style:normal;font-variant:normal;font-weight:bold;font-stretch:normal;font-size:10.58333302px;line-height:1.25;font-family:Poppins;-inkscape-font-specification:'Poppins Bold';letter-spacing:0px;word-spacing:0px;fill:#ffcb9a;fill-opacity:1;stroke:none;stroke-width:0.29259136"
           id="path26" />
        <path
           d="m 72.447484,114.76011 h 1.80975 v -7.4295 h -1.80975 z"
           style="font-style:normal;font-variant:normal;font-weight:bold;font-stretch:normal;font-size:10.58333302px;line-height:1.25;font-family:Poppins;-inkscape-font-specification:'Poppins Bold';letter-spacing:0px;word-spacing:0px;fill:#ffcb9a;fill-opacity:1;stroke:none;stroke-width:0.26458332"
           id="path28" />
        <path
           d="m 75.039571,107.33061 v 7.4295 h 4.180416 v -1.397 h -2.370666 v -6.0325 z"
           style="font-style:normal;font-variant:normal;font-weight:bold;font-stretch:normal;font-size:10.58333302px;line-height:1.25;font-family:Poppins;-inkscape-font-specification:'Poppins Bold';letter-spacing:0px;word-spacing:0px;fill:#ffcb9a;fill-opacity:1;stroke:none;stroke-width:0.26458332"
           id="path30" />
        <path
           d="m 78.093524,108.78053 h 1.9685 v 5.97958 h 1.80975 v -5.97958 h 1.9685 v -1.44992 h -5.74675 z"
           style="font-style:normal;font-variant:normal;font-weight:bold;font-stretch:normal;font-size:10.58333302px;line-height:1.25;font-family:Poppins;-inkscape-font-specification:'Poppins Bold';letter-spacing:0px;word-spacing:0px;fill:#ffcb9a;fill-opacity:1;stroke:none;stroke-width:0.26458332"
           id="path32" />
        <path
           d="m 91.013623,111.0242 c 0,-2.23309 -1.68275,-3.79942 -3.799416,-3.79942 -2.106083,0 -3.820583,1.56633 -3.820583,3.79942 0,2.23308 1.7145,3.81 3.820583,3.81 2.106083,0 3.799416,-1.57692 3.799416,-3.81 z m -5.767916,0 c 0,-1.32292 0.762,-2.159 1.9685,-2.159 1.185333,0 1.957916,0.83608 1.957916,2.159 0,1.30175 -0.772583,2.159 -1.957916,2.159 -1.2065,0 -1.9685,-0.85725 -1.9685,-2.159 z"
           style="font-style:normal;font-variant:normal;font-weight:bold;font-stretch:normal;font-size:10.58333302px;line-height:1.25;font-family:Poppins;-inkscape-font-specification:'Poppins Bold';letter-spacing:0px;word-spacing:0px;fill:#ffcb9a;fill-opacity:1;stroke:none;stroke-width:0.26458332"
           id="path34" />
        <path
           d="m 96.317527,107.33061 v 4.60375 l -3.026833,-4.60375 h -1.80975 v 7.4295 h 1.80975 v -4.58258 l 3.026833,4.58258 h 1.80975 v -7.4295 z"
           style="font-style:normal;font-variant:normal;font-weight:bold;font-stretch:normal;font-size:10.58333302px;line-height:1.25;font-family:Poppins;-inkscape-font-specification:'Poppins Bold';letter-spacing:0px;word-spacing:0px;fill:#ffcb9a;fill-opacity:1;stroke:none;stroke-width:0.26458332"
           id="path36" />
      </g>
    </g>
  </g>
</svg>
